<svg width="150" height="150" viewBox="0 0 150 150" xmlns="http://www.w3.org/2000/svg">
  <defs>
    <linearGradient id="avatarGradient" x1="0%" y1="0%" x2="100%" y2="100%">
      <stop offset="0%" style="stop-color:#8B7EC8;stop-opacity:1" />
      <stop offset="50%" style="stop-color:#A594C7;stop-opacity:1" />
      <stop offset="100%" style="stop-color:#C8B5D6;stop-opacity:1" />
    </linearGradient>
    <linearGradient id="faceGradient" x1="0%" y1="0%" x2="100%" y2="100%">
      <stop offset="0%" style="stop-color:#FFE4C4;stop-opacity:1" />
      <stop offset="100%" style="stop-color:#F5DEB3;stop-opacity:1" />
    </linearGradient>
  </defs>
  
  <!-- 背景圆 -->
  <circle cx="75" cy="75" r="75" fill="url(#avatarGradient)"/>
  
  <!-- 头部 -->
  <circle cx="75" cy="65" r="35" fill="url(#faceGradient)"/>
  
  <!-- 眼睛 -->
  <circle cx="68" cy="58" r="3" fill="#2C2C54"/>
  <circle cx="82" cy="58" r="3" fill="#2C2C54"/>
  
  <!-- 眼睛高光 -->
  <circle cx="69" cy="57" r="1" fill="white"/>
  <circle cx="83" cy="57" r="1" fill="white"/>
  
  <!-- 鼻子 -->
  <ellipse cx="75" cy="65" rx="1.5" ry="2" fill="#E6B8A2"/>
  
  <!-- 嘴巴 -->
  <path d="M 70 70 Q 75 75 80 70" stroke="#2C2C54" stroke-width="2" fill="none" stroke-linecap="round"/>
  
  <!-- 头发 -->
  <path d="M 45 50 Q 50 35 75 40 Q 100 35 105 50 Q 100 45 85 45 Q 75 35 65 45 Q 50 45 45 50" fill="#2C2C54"/>
  
  <!-- 身体/衣服 -->
  <ellipse cx="75" cy="120" rx="40" ry="30" fill="#6B5B95"/>
  
  <!-- 衣领 -->
  <path d="M 60 105 Q 75 110 90 105 Q 85 115 75 115 Q 65 115 60 105" fill="white"/>
  
  <!-- 装饰元素 -->
  <circle cx="30" cy="30" r="8" fill="#E6DDF0" opacity="0.7"/>
  <circle cx="120" cy="40" r="6" fill="#C8B5D6" opacity="0.8"/>
  <circle cx="25" cy="120" r="5" fill="#A594C7" opacity="0.6"/>
  <circle cx="125" cy="110" r="7" fill="#8B7EC8" opacity="0.7"/>
  
  <!-- 技能图标装饰 -->
  <g transform="translate(110, 20)">
    <rect x="0" y="0" width="12" height="8" rx="2" fill="#8B7EC8" opacity="0.8"/>
    <rect x="2" y="2" width="8" height="4" rx="1" fill="white"/>
  </g>
  
  <g transform="translate(20, 100)">
    <circle cx="6" cy="6" r="6" fill="#A594C7" opacity="0.7"/>
    <path d="M 3 6 L 6 9 L 9 3" stroke="white" stroke-width="1.5" fill="none" stroke-linecap="round"/>
  </g>
</svg>